<svg viewBox="0 0 415 415" fill="none" xmlns="http://www.w3.org/2000/svg">
  <path d="M146.727 51.1705C136.071 24.2715 160.46 0 189.393 0L362.612 0C391.545 0 415.934 24.2715 405.278 51.1705C384.898 102.614 334.699 138.997 276.003 138.997C217.306 138.997 167.107 102.614 146.727 51.1705Z" fill="currentColor"/>
  <path d="M415 189.393C415 160.46 390.729 136.071 363.829 146.727C312.385 167.107 276.003 217.306 276.003 276.003C276.003 334.699 312.385 384.898 363.829 405.278C390.729 415.934 415 391.545 415 362.612L415 189.393Z" fill="currentColor"/>
  <path d="M9.72186 363.829C-0.934401 390.728 23.4547 415 52.3876 415H225.607C254.54 415 278.929 390.729 268.273 363.829C247.893 312.386 197.694 276.003 138.997 276.003C80.3007 276.003 30.1018 312.386 9.72186 363.829Z" fill="currentColor"/>
  <path d="M0 225.607C0 254.54 24.2715 278.929 51.1705 268.273C102.614 247.893 138.997 197.694 138.997 138.997C138.997 80.3007 102.614 30.1018 51.1705 9.72186C24.2715 -0.934401 0 23.4547 0 52.3876L0 225.607Z" fill="currentColor"/>
</svg>
